<svg preserveAspectRatio="none" overflow="visible" style="display: block;" width="14" height="14" viewBox="0 0 14 14" fill="none" xmlns="http://www.w3.org/2000/svg">
<g id="refresh-solid">
<path id="Union" d="M7.58333 11.6663H5.24935L5.25033 10.5003H7.58333V11.6663ZM11.0833 8.16634H12.2503L12.2493 9.33333V10.5003H11.0833V11.6663H9.91634V10.5003H8.74935L8.75033 9.33333H7.58333V8.16634H9.91634V4.66634H11.0833V8.16634ZM5.24935 10.5003H4.08333V9.33333H5.25033L5.24935 10.5003ZM4.08333 3.50033H5.25033V4.66634H6.41634V5.83333H4.08333V9.33333H2.91634V5.83333H1.75033V3.50033H2.91634V2.33333H4.08333V3.50033ZM13.4163 9.33333H12.2503V8.16634H13.4163V9.33333ZM1.74935 5.83333H0.583333V4.66634H1.75033L1.74935 5.83333ZM9.91634 4.66634H8.75033V3.50033H9.91634V4.66634ZM8.75033 3.50033H6.41634V2.33333H8.75033V3.50033Z" fill="#6B7684"/>
</g>
</svg>
